<svg version="1.2" xmlns="http://www.w3.org/2000/svg" viewBox="0 0 257 274" width="50" height="53">
	<title>image</title>
	<style>
		.s0 { opacity: 1;fill: #fdfdfd } 
		.s1 { opacity: 1;fill: #fcfdfd } 
		.s2 { opacity: .5;fill: #7f7f7f } 
	</style>
	<g id="Слой 1">
		<path id="Path 0" fill-rule="evenodd" class="s0" d="m131.5 122c2.1 0 2.5 0.5 2.5 3 0 2.5-0.4 3-2.5 3-2.1 0-2.5-0.5-2.5-3 0-2.5 0.4-3 2.5-3zm-7 1c0.6 0 0.9 0.7 0.8 1.5-0.2 0.8-0.3 2.2-0.3 3 0 0.8-1.7 2.4-3.8 3.5-2 1-4.1 1.6-4.5 1.2-0.5-0.4-0.7 0.6-0.4 2.3 0.3 2.1 0.9 2.9 2.1 2.8 0.9-0.2 3.3 0.7 5.3 2 2 1.2 4.8 3.7 6.2 5.6 2.1 2.8 2.6 4.6 2.6 9.1 0 4.6-0.5 6.3-2.8 9.3-1.5 2-4.2 4.4-6 5.3q-3.2 1.7-8.2 1.2c-2.9-0.2-6.3-1.3-8.3-2.6-1.7-1.2-4-3.7-4.9-5.4-1-2-1.7-5.5-1.6-8.8 0-3.7 0.9-7.3 5.3-17l-2.3-1.4c-1.6-1-2.1-2.2-1.7-7.6l8 4 3.3-2.2c1.7-1.2 4.8-3 6.7-4 1.9-0.9 4-1.7 4.5-1.8zm-16.1 22c-0.8 1.9-1.4 5.8-1.5 8.5 0 4.1 0.5 5.5 2.7 7.5 1.9 1.9 3.6 2.5 6.9 2.5 3.3 0 5-0.6 6.9-2.5 1.4-1.4 2.8-3.7 3.1-5.2 0.3-1.6-0.2-4.3-1-6-1-2.1-3.6-4.5-7-6.5-3-1.8-5.9-3.3-6.3-3.3-0.5 0-1.2 0.3-1.6 0.8-0.4 0.4-1.4 2.3-2.2 4.2zm34.3-20.5c0.2 1.1 0.2 2.7 0 3.5-0.3 0.8-0.5-0.1-0.5-2 0-1.9 0.2-2.6 0.5-1.5zm43.3 12.5l2.8 2.1c1.5 1.1 3.5 3.3 4.4 4.7 1 1.5 2.4 5.7 3.3 9.5 0.8 3.7 1.5 7.6 1.5 8.7 0 1.9-0.6 2-17.4 1.8-9.6-0.2-17.7-0.5-17.9-0.8-0.3-0.3-0.3-1.7 0.3-6l13 0.8c7.2 0.4 13 0.4 13 0 0-0.5-3.3-2.9-14.5-9.9l4.4-4.4 5.3 3.3c2.9 1.8 5.4 3.1 5.5 3 0.1-0.2-0.2-1.8-0.7-3.5-0.6-1.8-1.4-4.6-2-6.3zm-25.7 22.2c0.2 0.4 0.2 1.3 0.1 2-0.1 0.7-0.3 0.4-0.3-0.7-0.1-1.1 0-1.7 0.2-1.3z"/>
		<path id="Path 1" class="s1" d="m57.1 103.5c-0.6 0.8-0.9 2.2-0.6 3 0.3 0.8 6.2 4.7 13.2 8.7 7.1 3.9 16.8 9.5 21.8 12.4 5 2.9 9.3 5.1 9.7 4.9 0.5-0.3 0.8-1.7 0.8-3.3 0-2.4-1.1-3.3-9.6-8.2-5.4-3-11.5-6.6-13.8-7.9-2.3-1.3-6.1-3.5-8.6-4.9-2.5-1.4-5.8-3.4-7.5-4.4-1.6-1-3.3-1.8-3.6-1.8-0.4 0-1.2 0.7-1.8 1.5zm68.8 20.4c-0.6 1.1-1 2.7-1 3.5 0.1 0.9 0.8 1.5 1.8 1.3 1.2-0.1 1.9-1.3 2-3.5 0.2-1.7-0.2-3.2-0.7-3.2-0.5 0-1.4 0.9-2.1 1.9zm8.2 1c-0.1 2.7 0.3 3.1 2.4 3.1 1.4 0 3.2 0.3 4.1 0.8 1.4 0.6 1.6 0.1 1.3-2.8-0.4-3.2-0.7-3.5-4.1-3.8-3.5-0.3-3.7-0.2-3.7 2.7zm8.9 0.9c-0.1 2.3 1 3.4 8.2 7.8 4.6 2.8 12.1 7.4 16.8 10.4 4.7 2.9 8.2 4.9 7.7 4.4-0.4-0.5 0.2-1.8 1.2-2.9 1.9-2 1.9-2-12.6-11-8-4.9-16-9.6-17.7-10.3-1.7-0.7-3.2-1.2-3.4-1.2-0.1 0-0.2 1.2-0.2 2.8zm40.4 0.5c-0.3 0.6 0 3 0.6 5.2 0.7 2.4 3 5.7 5.6 8.3 3.2 3 4.8 5.7 5.9 9.5 0.8 2.8 1.9 7.3 2.3 10 0.4 2.6 1 4.7 1.4 4.7 0.5 0 1-0.7 1.3-1.5 0.3-0.8-2-8.6-5-17.3-3.1-8.6-6-16.7-6.5-17.9-0.6-1.3-1.9-2.3-3-2.3-1.1 0-2.3 0.6-2.6 1.2zm-67.3 7.3c0 1.1 0.2 1.4 0.3 0.7 0.1-0.7 0.1-1.6-0.1-2-0.2-0.4-0.3 0.2-0.2 1.3zm0.3 3.5c0.3 0.6 1 0.8 1.6 0.5 0.5-0.3 1-0.7 1-1 0-0.3-0.7-0.5-1.6-0.5-0.9 0-1.3 0.4-1 1zm45 20.8c-0.6 0.4-0.7 1.8-0.4 3.2l0.7 2.5c0.9-4.3 1-5.8 0.9-6-0.1-0.2-0.7-0.1-1.2 0.3zm11.8-0.1c0.5 0.5 1.1 0.5 1.5 0 0.3-0.4 0-0.7-0.8-0.7-0.8 0-1.1 0.3-0.7 0.7zm-52-15c0.9 0.2 2.2 0.2 3 0 0.7-0.3-0.1-0.5-1.7-0.5-1.7 0-2.3 0.2-1.3 0.5z"/>
		<path id="Path 2" class="s2" d="m105.9 154c0 0.8 0.4 1.2 0.8 0.8 0.4-0.5 0.4-1.1 0-1.6-0.4-0.4-0.8 0-0.8 0.8z"/>
	</g>
</svg>